<svg xmlns="http://www.w3.org/2000/svg" version="1.1" xmlns:xlink="http://www.w3.org/1999/xlink" xmlns:svgjs="http://svgjs.dev/svgjs" width="1500" height="935" viewBox="0 0 1500 935"><g transform="matrix(1,0,0,1,-0.9090909090909918,0.3785425101214628)"><svg viewBox="0 0 396 247" data-background-color="#ffffff" preserveAspectRatio="xMidYMid meet" height="935" width="1500" xmlns="http://www.w3.org/2000/svg" xmlns:xlink="http://www.w3.org/1999/xlink"><g id="tight-bounds" transform="matrix(1,0,0,1,0.2400000000000091,-0.09999999999999432)"><svg viewBox="0 0 395.52 247.2" height="247.2" width="395.52"><g><svg></svg></g><g><svg viewBox="0 0 395.52 247.2" height="247.2" width="395.52"><g transform="matrix(1,0,0,1,90.68168200997316,37.08)"><svg viewBox="0 0 214.15663598005366 173.04" height="173.04" width="214.15663598005366"><g><svg viewBox="0 0 214.15663598005366 173.04" height="173.04" width="214.15663598005366"><g><svg viewBox="0 0 214.15663598005366 173.04" height="173.04" width="214.15663598005366"><g><svg viewBox="0 0 214.15663598005366 173.04" height="173.04" width="214.15663598005366"><g id="textblocktransform"><svg viewBox="0 0 214.15663598005366 173.04" height="173.04" width="214.15663598005366" id="textblock"><g><svg viewBox="0 0 214.15663598005366 173.04" height="173.04" width="214.15663598005366"><g transform="matrix(1,0,0,1,0,0)"><svg width="214.15663598005366" viewBox="0.99444455556 -35.25 43.99646425596 35.55" height="173.04" data-palette-color="#010c80"><path d="M24.7-13.25L32.85-34 32.85-35 35.85-35Q37.3-35 39.3-35.1 41.3-35.2 42.7-35.25L42.7-35.25Q42.85-34.3 42.6-33.5L42.6-33.5Q41.5-33.3 40.5-33.1 39.5-32.9 38.6-32.5L38.6-32.5 41.1-2.5 44.95-1.5Q45.1-0.55 44.7 0.25L44.7 0.25Q43.35 0.15 41.68 0.08 40 0 38.6 0L38.6 0Q37.2 0 35.18 0.08 33.15 0.15 31.75 0.25L31.75 0.25Q31.6-0.7 31.85-1.5L31.85-1.5Q32.95-1.7 34-1.85 35.05-2 35.85-2.5L35.85-2.5 33.75-24.4Q33.7-25.1 33.68-25.8 33.65-26.5 33.65-27.2L33.65-27.2Q33.65-27.75 33.65-28.35 33.65-28.95 33.7-29.5L33.7-29.5 33.55-29.5Q33.2-28.25 32.83-26.98 32.45-25.7 31.95-24.4L31.95-24.4 22.9-1.55Q21.95-1 21.1-1.05L21.1-1.05 11.25-24.4Q10.8-25.55 10.4-26.83 10-28.1 9.6-29.5L9.6-29.5 9.45-29.5 9.3-24.35 8.05-2.45 11.9-1.45Q12.05-0.5 11.65 0.3L11.65 0.3Q10.3 0.2 9.05 0.1 7.8 0 6.4 0L6.4 0Q5 0 3.73 0.08 2.45 0.15 1.05 0.25L1.05 0.25Q0.9-0.7 1.15-1.5L1.15-1.5Q2.15-1.65 3.13-1.9 4.1-2.15 5.05-2.5L5.05-2.5 7.05-32.5 3.2-33.5Q3.05-34.45 3.45-35.25L3.45-35.25Q4.8-35.2 6.48-35.1 8.15-35 9.55-35L9.55-35 12.8-35 12.8-34 20.95-13.25Q21.6-11.7 22-10.3 22.4-8.9 22.75-7.35L22.75-7.35 22.85-7.35Q23.25-8.95 23.7-10.38 24.15-11.8 24.7-13.25L24.7-13.25Z" opacity="1" transform="matrix(1,0,0,1,0,0)" fill="#010c80" class="wordmark-text-0" data-fill-palette-color="primary" id="text-0"></path></svg></g></svg></g></svg></g></svg></g></svg></g></svg></g></svg></g><g><path d="M0 247.2v-247.2h395.52v247.2zM379.915 231.595v-215.99h-364.31v215.99z" fill="#010c80" fill-rule="nonzero" stroke="none" stroke-width="1" stroke-linecap="butt" stroke-linejoin="miter" stroke-miterlimit="10" stroke-dasharray="" stroke-dashoffset="0" font-family="none" font-weight="none" font-size="none" text-anchor="none" style="mix-blend-mode: normal" data-fill-palette-color="tertiary"></path></g></svg></g><defs></defs></svg><rect width="395.52" height="247.2" fill="none" stroke="none" visibility="hidden"></rect></g></svg></g></svg>